<?xml version="1.0" encoding="utf-8"?>
<svg version="1.1" id="Layer_1" xmlns="http://www.w3.org/2000/svg" xmlns:xlink="http://www.w3.org/1999/xlink" x="0px" y="0px"
	 viewBox="0 0 1080 1080" style="enable-background:new 0 0 1080 1080;" xml:space="preserve">
<style type="text/css">
	.st0{fill:#0050FE;}
	.st1{fill:#DADADA;}
	.st2{fill:#F6F6F6;}
</style>
<path class="st0" d="M990.44,119.24c-30.92,52.84-58.63,103.16-89.36,151.56c-17.8,28.03-45.84,43.37-79.96,45.16
	c-9.6,0.5-19.22,0.7-28.83,0.7c-221.24,0.04-442.47,0.04-663.71,0.02c-25.93,0-26.03-0.12-13.45-22.03
	c22.77-39.67,45.57-79.32,68.54-118.87c20.56-35.4,52.09-55.92,92.34-56.08C512.76,118.77,749.52,119.24,990.44,119.24z"/>
<path class="st1" d="M599.3,354.49c-17.76,0.02-35.53,0.04-53.29,0.05c-7.37-0.03-14.73-0.07-22.1-0.1c0,0,0,0,0,0
	c-9.08,8.23-23.11,7.75-31.21,17.73c-30.33,11.63-47.04,35.59-52.64,65.67c-7.55,40.57,2.06,78.58,26.13,112.53c0,0,0,0,0,0
	c16.17-0.34,32.35-0.68,48.52-1.02c0,0,0,0,0,0c8.95-0.01,17.91-0.02,26.86-0.03c10.47-0.08,20.95-0.16,31.42-0.24c0,0,0,0,0,0
	c0,0,0,0,0,0c34.68-0.01,69.37,0.73,104.02-0.26c32.89-0.94,63.64-10.77,83.76-37.98c35.78-48.4,61.41-103.01,93.68-156.34
	C767.11,354.49,683.2,354.49,599.3,354.49z"/>
<path class="st2" d="M576.84,754.37C576.84,754.37,576.84,754.37,576.84,754.37C576.84,754.37,576.84,754.37,576.84,754.37
	c-3.63-20.57-17.22-36.03-27.31-53.29l0,0c-11.81-20.69-23.63-41.37-35.44-62.06c0,0,0,0,0,0c0,0,0,0,0,0
	c-10.28-17.8-20.55-35.6-30.83-53.4h0c-5.68-11.75-11.37-23.51-17.05-35.26c0,0,0,0,0-0.01c-24.07-33.95-33.68-71.95-26.13-112.53
	c5.6-30.08,22.3-54.04,52.64-65.67c8.09-9.98,22.12-9.49,31.21-17.73c0,0,0,0,0,0c-16.25-1.91-32.39-1.04-48.37,2.29
	c-166.39,34.68-239.09,216.92-142.85,357.99c6.44,16.04,15.85,30.37,25.61,44.5c0,0,0,0,0,0c9.91,21.85,22.55,42.14,35.52,62.24l0,0
	c12.11,20.83,24.22,41.66,36.32,62.49c5.8,14.04,13.45,27,22.65,39.07c10.11,21.83,22.51,42.25,36.84,64
	c27.17-48.14,52.91-93.76,78.65-139.37c0,0,0,0,0,0c0,0,0,0,0,0C587,818.02,592.34,787.15,576.84,754.37z"/>
</svg>
