<?xml version="1.0" encoding="utf-8"?>
<!-- Generator: Adobe Illustrator 26.3.1, SVG Export Plug-In . SVG Version: 6.00 Build 0)  -->
<svg version="1.1" id="Layer_1" xmlns="http://www.w3.org/2000/svg" xmlns:xlink="http://www.w3.org/1999/xlink" x="0px" y="0px"
	 viewBox="0 0 1080 1080" style="enable-background:new 0 0 1080 1080;" xml:space="preserve">
<style type="text/css">
	.st0{fill:#0050FE;}
	.st1{fill:#292B33;}
	.st2{fill:#474954;}
</style>
<path class="st0" d="M990.4,119.2c-30.9,52.8-58.6,103.2-89.4,151.6c-17.8,28-45.8,43.4-80,45.2c-9.6,0.5-19.2,0.7-28.8,0.7
	c-221.2,0-442.5,0-663.7,0c-25.9,0-26-0.1-13.4-22c22.8-39.7,45.6-79.3,68.5-118.9c20.6-35.4,52.1-55.9,92.3-56.1
	C512.8,118.8,749.5,119.2,990.4,119.2z"/>
<path class="st1" d="M599.3,354.5c-17.8,0-35.5,0-53.3,0c-7.4,0-14.7-0.1-22.1-0.1l0,0c-9.1,8.2-23.1,7.8-31.2,17.7
	c-30.3,11.6-47,35.6-52.6,65.7c-7.5,40.6,2.1,78.6,26.1,112.5l0,0c16.2-0.3,32.4-0.7,48.5-1l0,0c9,0,17.9,0,26.9,0
	c10.5-0.1,21-0.2,31.4-0.2l0,0l0,0c34.7,0,69.4,0.7,104-0.3c32.9-0.9,63.6-10.8,83.8-38c35.8-48.4,61.4-103,93.7-156.3
	C767.1,354.5,683.2,354.5,599.3,354.5z"/>
<path class="st2" d="M576.8,754.4L576.8,754.4L576.8,754.4c-3.6-20.6-17.2-36-27.3-53.3l0,0c-11.8-20.7-23.6-41.4-35.4-62.1l0,0l0,0
	c-10.3-17.8-20.5-35.6-30.8-53.4l0,0c-5.7-11.8-11.4-23.5-17-35.3c0,0,0,0,0,0c-24.1-34-33.7-72-26.1-112.5
	c5.6-30.1,22.3-54,52.6-65.7c8.1-10,22.1-9.5,31.2-17.7l0,0c-16.2-1.9-32.4-1-48.4,2.3c-166.4,34.7-239.1,216.9-142.9,358
	c6.4,16,15.9,30.4,25.6,44.5l0,0c9.9,21.8,22.5,42.1,35.5,62.2l0,0c12.1,20.8,24.2,41.7,36.3,62.5c5.8,14,13.5,27,22.6,39.1
	c10.1,21.8,22.5,42.2,36.8,64c27.2-48.1,52.9-93.8,78.6-139.4l0,0l0,0C587,818,592.3,787.2,576.8,754.4z"/>
</svg>
